<?xml version="1.0" encoding="utf-8"?>
<!-- Generator: Adobe Illustrator 24.3.0, SVG Export Plug-In . SVG Version: 6.00 Build 0)  -->
<svg version="1.1" id="Livello_1" xmlns:v="https://vecta.io/nano"
	 xmlns="http://www.w3.org/2000/svg" xmlns:xlink="http://www.w3.org/1999/xlink" x="0px" y="0px" viewBox="0 0 50 50"
	 style="enable-background:new 0 0 50 50;" xml:space="preserve">
<style type="text/css">
	.st0{fill:#F15D46;}
	.st1{fill:#FFFFFF;}
	.st2{fill:#EFEFED;}
</style>
<path class="st0" d="M38,19.6c0,3.9-3.1,7-7,7s-7-3.1-7-7s3.1-7,7-7C34.8,12.6,38,15.7,38,19.6"/>
<path class="st1" d="M16.5,20.7c0.2,0,0.4,0,0.6,0C17,20.4,17,20,17,19.7c0-2.8,2.2-5,5-5c2.7,0,4.9,2.1,5,4.8
	c0.5-0.5,1.3-0.8,2-0.8c1.7,0,3,1.3,3,3c0,0,0,0,0,0c0,0.4-0.1,0.7-0.2,1.1c0.2,0,0.5-0.1,0.7-0.1c1.9,0,3.5,1.6,3.5,3.5
	s-1.6,3.5-3.5,3.5h-16c-2.5,0-4.5-2-4.5-4.5C12,22.7,14,20.7,16.5,20.7"/>
<path class="st2" d="M0,0"/>
</svg>
