<?xml version="1.0" encoding="utf-8"?>
<!-- Generator: Adobe Illustrator 24.3.0, SVG Export Plug-In . SVG Version: 6.00 Build 0)  -->
<svg version="1.1" id="Livello_1" xmlns:v="https://vecta.io/nano"
	 xmlns="http://www.w3.org/2000/svg" xmlns:xlink="http://www.w3.org/1999/xlink" x="0px" y="0px" viewBox="0 0 50 50"
	 style="enable-background:new 0 0 50 50;" xml:space="preserve">
<style type="text/css">
	.st0{fill:#3B3C40;}
	.st1{fill:#FFFFFF;}
</style>
<path class="st0" d="M24.8,14.1c0.3,0,0.5,0,0.8,0.1c-0.1-0.5-0.1-1-0.1-1.5c0-4.1,2.8-7.4,6.2-7.4c3.4,0,6.1,3.1,6.2,7
	c0.7-0.7,1.6-1.1,2.5-1.1c2.1,0,3.7,2,3.7,4.4l0,0c0,0.5-0.1,1.1-0.3,1.6c0.3-0.1,0.6-0.1,0.9-0.1c2.4,0,4.4,2.3,4.4,5.2
	c0,2.9-2,5.2-4.4,5.2h-20c-3.1,0-5.6-3-5.6-6.6S21.7,14.1,24.8,14.1"/>
<path class="st1" d="M14.4,20.1c0.3,0,0.6,0,0.9,0.1c-0.1-0.6-0.2-1.2-0.2-1.8c0-4.8,3.3-8.7,7.4-8.7c4,0,7.2,3.7,7.4,8.4
	c0.8-0.9,1.9-1.4,3-1.4c2.5,0,4.4,2.3,4.4,5.2c0,0.7-0.1,1.3-0.3,1.9c0.3-0.1,0.7-0.1,1-0.1c2.9,0,5.2,2.7,5.2,6.1
	c0,3.4-2.3,6.1-5.2,6.1H14.4c-3.7,0-6.7-3.5-6.7-7.9C7.7,23.6,10.7,20.1,14.4,20.1"/>
</svg>
