<?xml version="1.0" encoding="utf-8"?>
<!-- Generator: Adobe Illustrator 24.3.0, SVG Export Plug-In . SVG Version: 6.00 Build 0)  -->
<svg version="1.1" id="Livello_1" xmlns:v="https://vecta.io/nano"
	 xmlns="http://www.w3.org/2000/svg" xmlns:xlink="http://www.w3.org/1999/xlink" x="0px" y="0px" viewBox="0 0 50 50"
	 style="enable-background:new 0 0 50 50;" xml:space="preserve">
<style type="text/css">
	.st0{fill:#3B3C40;}
</style>
<path class="st0" d="M34.2,14.7H14.4c-0.5,0-0.8-0.4-0.8-1s0.4-1,0.8-1h19.8c0.5,0,0.8,0.4,0.8,1C35,14.2,34.6,14.7,34.2,14.7
	C34.2,14.7,34.2,14.7,34.2,14.7 M32.2,9.9h-9.9c-0.5,0-0.8-0.4-0.8-1c0,0,0,0,0,0c0-0.5,0.4-1,0.8-1h9.9c0.5,0,0.8,0.4,0.8,1
	C33,9.4,32.6,9.9,32.2,9.9C32.2,9.9,32.2,9.9,32.2,9.9 M45.4,19.5H21.5c-0.5,0-0.8-0.4-0.8-1c0-0.5,0.4-1,0.8-1l0,0h23.9
	c0.5,0,0.8,0.4,0.8,0.9C46.3,19,45.9,19.5,45.4,19.5C45.5,19.5,45.4,19.5,45.4,19.5 M36.3,33.4H21.5c-0.5,0-0.8-0.5-0.8-1
	c0-0.5,0.4-0.9,0.8-0.9h14.8c0.5,0,0.8,0.4,0.8,1C37.1,32.9,36.7,33.4,36.3,33.4 M36.3,24.1H12.4c-0.5,0-0.8-0.4-0.8-1c0,0,0,0,0,0
	c0-0.5,0.4-1,0.8-1c0,0,0,0,0,0h23.9c0.5,0,0.8,0.4,0.8,1C37.1,23.7,36.7,24.1,36.3,24.1L36.3,24.1 M41.6,28.7H17.7
	c-0.5,0-0.8-0.4-0.8-1s0.4-1,0.8-1h23.9c0.5,0,0.8,0.4,0.8,1C42.4,28.3,42.1,28.7,41.6,28.7"/>
</svg>
